<svg width="23" height="22" viewBox="0 0 23 22" fill="none" xmlns="http://www.w3.org/2000/svg">
<path d="M12.9231 1.00765C12.9231 1.00765 12.9231 -2.47955e-05 13.9308 -2.47955e-05C14.9385 -2.47955e-05 14.9385 1.00765 14.9385 1.00765V2.01533C14.9385 2.01533 14.9385 3.02301 13.9308 3.02301C12.9231 3.02301 12.9231 2.01533 12.9231 2.01533V1.00765Z" fill="#FFAC33"/>
<path d="M21.9922 8.06143C21.9922 8.06143 22.9998 8.06143 22.9998 9.0691C22.9998 10.0768 21.9922 10.0768 21.9922 10.0768H20.9845C20.9845 10.0768 19.9768 10.0768 19.9768 9.0691C19.9768 8.06143 20.9845 8.06143 20.9845 8.06143H21.9922Z" fill="#FFAC33"/>
<path d="M6.87717 8.06143C6.87717 8.06143 7.88485 8.06143 7.88485 9.0691C7.88485 10.0768 6.87717 10.0768 6.87717 10.0768H5.86949C5.86949 10.0768 4.86182 10.0768 4.86182 9.0691C4.86182 8.06143 5.86949 8.06143 5.86949 8.06143H6.87717Z" fill="#FFAC33"/>
<path d="M9.45711 3.67501C9.45711 3.67501 10.1695 4.38744 9.45711 5.09987C8.74468 5.8123 8.03225 5.09987 8.03225 5.09987L7.31932 4.38744C7.31932 4.38744 6.60689 3.67501 7.31932 2.96208C8.03225 2.24965 8.74468 2.96208 8.74468 2.96208L9.45711 3.67501Z" fill="#FFAC33"/>
<path d="M20.0379 14.2551C20.0379 14.2551 20.7503 14.9675 20.0379 15.6799C19.3255 16.3924 18.613 15.6799 18.613 15.6799L17.9006 14.9675C17.9006 14.9675 17.1882 14.2551 17.9006 13.5427C18.613 12.8302 19.3255 13.5427 19.3255 13.5427L20.0379 14.2551Z" fill="#FFAC33"/>
<path d="M19.8299 5.09938C19.8299 5.09938 19.1174 5.81181 18.405 5.09938C17.6926 4.38695 18.405 3.67452 18.405 3.67452L19.1174 2.96209C19.1174 2.96209 19.8299 2.24967 20.5423 2.96209C21.2547 3.67452 20.5423 4.38695 20.5423 4.38695L19.8299 5.09938Z" fill="#FFAC33"/>
<path d="M9.2493 15.6799C9.2493 15.6799 8.53688 16.3924 7.82445 15.6799C7.11202 14.9675 7.82445 14.2551 7.82445 14.2551L8.53688 13.5427C8.53688 13.5427 9.24931 12.8302 9.96173 13.5427C10.6742 14.2551 9.96173 14.9675 9.96173 14.9675L9.2493 15.6799Z" fill="#FFAC33"/>
<path d="M12.9231 16.1229C12.9231 16.1229 12.9231 15.1152 13.9308 15.1152C14.9385 15.1152 14.9385 16.1229 14.9385 16.1229V17.1306C14.9385 17.1306 14.9385 18.1382 13.9308 18.1382C12.9231 18.1382 12.9231 17.1306 12.9231 17.1306V16.1229Z" fill="#FFAC33"/>
<path d="M18.9694 9.06909C18.9694 6.28639 16.7132 4.0307 13.931 4.0307C11.1483 4.0307 8.89258 6.28639 8.89258 9.06909C8.89258 11.8513 11.1483 14.1075 13.931 14.1075C16.7132 14.1075 18.9694 11.8513 18.9694 9.06909Z" fill="#FFAC33"/>
<path d="M16.254 11.5058C16.2568 11.4686 16.2582 11.4315 16.2582 11.3945C16.2581 11.0014 16.1017 10.6232 15.821 10.3368C15.5402 10.0504 15.1561 9.87731 14.747 9.85288C14.5482 9.35075 14.2034 8.91379 13.7535 8.59378C13.3037 8.27376 12.7676 8.0841 12.2088 8.04727C11.6499 8.01043 11.0918 8.12796 10.6005 8.38594C10.1092 8.64392 9.70534 9.03153 9.43673 9.50284C9.35047 9.49332 9.26372 9.48846 9.17689 9.48828C8.82947 9.4872 8.48612 9.56009 8.17165 9.7017C7.85717 9.84332 7.57941 10.0501 7.35841 10.3072C7.32253 10.349 7.30024 10.3999 7.29431 10.4538C7.28839 10.5076 7.2991 10.5619 7.3251 10.61C7.3511 10.658 7.39125 10.6977 7.44057 10.7241C7.48989 10.7504 7.54619 10.7623 7.60249 10.7582C7.63289 10.7561 7.66538 10.7562 7.69604 10.7564C8.41583 10.7578 9.12003 10.9576 9.72476 11.3319C10.3295 11.7062 10.8093 12.2394 11.107 12.8678C11.134 12.9249 11.1805 12.9716 11.2389 13C11.2973 13.0284 11.364 13.0369 11.4281 13.0241C11.9324 12.9237 12.4555 12.9546 12.9431 13.1135C13.4308 13.2724 13.8652 13.5535 14.2013 13.9277C14.2284 13.958 14.262 13.9824 14.2998 13.9991C14.3376 14.0158 14.3787 14.0244 14.4203 14.0244H16.7107C16.761 14.0244 16.8104 14.0118 16.854 13.9878C16.8977 13.9638 16.934 13.9293 16.9594 13.8876C17.119 13.6256 17.2031 13.3277 17.2033 13.0244C17.2019 12.7128 17.113 12.4074 16.9459 12.1402C16.7789 11.873 16.5399 11.6538 16.254 11.5058Z" fill="#7CC9F2"/>
<path d="M15.4764 15.7978C15.4216 14.9253 15.036 14.1064 14.398 13.5077C13.7601 12.909 12.9177 12.5756 12.0423 12.5752C11.8812 12.5752 11.7203 12.5863 11.5608 12.6085C11.1978 11.9094 10.6499 11.3231 9.97645 10.9133C9.30304 10.5036 8.53002 10.2861 7.74147 10.2845C7.69722 10.2845 7.64949 10.2848 7.61898 10.2874C6.75036 10.3093 5.909 10.5947 5.20675 11.1057C4.50451 11.6167 3.97464 12.3291 3.68761 13.1481C3.08645 13.1592 2.51365 13.4053 2.09221 13.8336C1.67077 14.2618 1.43431 14.8381 1.43361 15.4385C1.43366 15.5262 1.4388 15.6137 1.44901 15.7008C1.01602 15.9141 0.651102 16.2437 0.395166 16.6525C0.13923 17.0614 0.00239624 17.5333 6.24402e-06 18.0155C-0.00100014 18.4692 0.119664 18.9149 0.349461 19.3062C0.374772 19.3491 0.410871 19.3847 0.454185 19.4095C0.497499 19.4342 0.546526 19.4472 0.596414 19.4471H3.8306C3.8989 19.4471 3.96495 19.4228 4.01688 19.3785C4.0688 19.3342 4.10318 19.2728 4.11382 19.2054C4.19657 18.6837 4.463 18.2086 4.8652 17.8656C5.2674 17.5225 5.77897 17.3341 6.30789 17.3341C6.83681 17.3341 7.34838 17.5225 7.75058 17.8656C8.15278 18.2086 8.41922 18.6837 8.50196 19.2054C8.5126 19.2728 8.54698 19.3342 8.5989 19.3785C8.65083 19.4228 8.71689 19.4471 8.78519 19.4471H16.5553C16.6014 19.4472 16.6469 19.4361 16.6878 19.4148C16.7287 19.3935 16.7638 19.3627 16.7903 19.3249C17.0597 18.9414 17.204 18.484 17.2033 18.0155C17.2013 17.5072 17.0308 17.0139 16.7184 16.6126C16.406 16.2114 15.9692 15.9249 15.4764 15.7978Z" fill="#9CD5F2"/>
<path d="M10.1305 18.2678C10.124 18.1504 10.1113 18.0334 10.0925 17.9172C9.96583 17.1447 9.5577 16.4411 8.94156 15.9332C8.32541 15.4252 7.54169 15.1462 6.73141 15.1463C5.92113 15.1464 5.13748 15.4256 4.52147 15.9337C3.90546 16.4418 3.49752 17.1455 3.37106 17.918C3.35236 18.0339 3.33973 18.1507 3.33322 18.2678C2.79521 18.4554 2.33018 18.7985 2.00144 19.2504C1.6727 19.7022 1.49625 20.2409 1.49609 20.7931C1.49609 20.8825 1.53287 20.9682 1.59833 21.0314C1.66379 21.0945 1.75257 21.13 1.84515 21.13H11.6186C11.7112 21.13 11.7999 21.0945 11.8654 21.0314C11.9309 20.9682 11.9676 20.8825 11.9676 20.7931C11.9675 20.2409 11.791 19.7022 11.4623 19.2504C11.1336 18.7985 10.6685 18.4554 10.1305 18.2678Z" fill="#B2EBF2"/>
</svg>
